<!-- icon666.com - MILLIONS vector ICONS FREE --><svg id="Layer_1" fill="rgb(101, 168, 129)" enable-background="new 0 0 73 73" viewBox="0 0 73 73" xmlns="http://www.w3.org/2000/svg"><g id="_x34_8"><path d="m15.0580378 57.4446487c-.3073883 3.6334839 3.7798548 5.8175049 6.1597281 3.8201904 7.9169445 9.6171188 23.0174713 10.76651 30.1630249-.2475586 1.5662231 1.1322632 3.3208618 2.1533813 5.2350464 2.0788574 1.567627-.0610352 3.0839844-.9162598 3.9472656-2.2261963.8897705-1.3502197 1.2668457-3.3685913.2749634-4.4111328 2.7440605.1461449 4.5628281-2.5058975 4.1229248-5.5058594-.1784286-1.2173538-.8704529-3.4419479-1.9660034-3.991394 2.0905991-.7268715 3.1965866-2.9711037 2.9424438-5.0408936-.2267303-1.8453598-1.4241714-4.0067368-3.5176392-4.9683228 1.7629471-1.3867912 2.3009872-4.8335304.4057617-7.3461914-2.6328468-5.063736-10.6461105-1.9005718-13.2390747 4.0841675-.9873657-1.4585571-2.1226807-2.8261719-3.4241943-4.0203247.1577759-.5671387.1236572-1.1751099-.1081543-1.7321777-2.2128296-5.3261719-4.9246826-10.2110596-8.3692017-15.0617065 2.238121-.8212557 3.2358437-5.2610779.6768188-6.196106-.6479187-1.7925787-2.7501259-2.6059642-4.4619141-1.5615234-2.0694942-1.8635495-4.6190395-.9256988-4.875 1.1972656-3.0445957 1.0336862-1.6083469 6.6997919 1.4863281 6.4033203.0341187.0546265.0752563.1043091.1124268.1569214-2.5137596 4.8317089-4.8016148 10.1989155-6.7325439 15.7649536-.1987915.5736694-.1834106 1.1883545.0246582 1.7510376-.7573853.7102661-1.4594116 1.4899292-2.1166382 2.3241577-2.0502472-2.2584152-3.8833313-6.2385006-7.6863394-6.7412109-1.9824219-.2626953-4.3701172.9101563-4.7734375 3.0712891-.3017578 1.6220703.6083984 3.1103516 1.890625 4.0039063-6.3809614 4.1824417-4.7401924 11.0811691-.1035156 11.9072266-5.6632671 6.6441917-1.3305711 13.5737152 3.9316407 12.4873046zm35.6582021-22.5732421c1.793148-5.0624447 7.208828-7.2407265 9.6044922-5.8623047 1.1611328.6669922 1.8242188 2.2568359 1.5771484 3.7792969-.2225342 1.3649292-1.086731 2.7124023-2.4313354 3.805603-.1710815-.1685181-.3562012-.322876-.5686646-.4403687-.3662109-.2021484-.8203125-.0683594-1.0195313.2929688-.2001953.3623047-.0693359.8193359.2929688 1.0195313.5517578.3046875.8388672 1.0888672.6162109 1.6777344-.1865425.4924774.1795464 1.015625.7011719 1.015625.8877602 0 .9844742-1.3274841.7705688-2.1704102 2.0660934-.0187302 3.8410187 1.7756081 3.8895874 3.6547852.0554352 2.0654984-1.9531326 3.9997711-4.0058594 3.8710938-.1100464-.0037231-.2148438.0233154-.3144531.0631104-.5907898-.6292191-1.2423096-.4870491-1.4755859.012085-.1738281.3759766-.0097656.8222656.3652344.9960938.0503426.0234947.0919037.1472473.0683594.1943359-.1845703.3710938-.0322266.8212891.3378906 1.0058594.3766899.1849213.823719.0291138 1.0058594-.3378906.0358276-.0723877.0598755-.1497192.0838623-.2268677 2.9316559 1.848465 3.3462067 4.6407318 2.2774658 6.3294067-.6738281 1.0654297-2.0537109 1.6162109-3.1416016 1.2519531-.7794571-.2568169-1.3460197.7477188-.7265625 1.2802734.8642578.7441406 1.0761719 2.2304688.4726563 3.3134766-1.1518097 2.0659752-4.3521118 2.5428963-6.8851318.2278442 3.2183113-5.8845024 3.7779465-12.3063583.9227905-18.8294067-.6414795-1.8482666-1.5174561-3.7823486-2.6105347-5.6390991.0822144-.0784915.1524049-.1704104.1929932-.2847292zm-20.3794555-18.064209c4.1014671 3.3189659 9.5092812 4.1677608 10.5015259 3.8411255 1.1531372 2.0540771 2.199707 4.1506348 3.1546631 6.3132324-5.6290283-.2149658-11.2055664-2.0692139-15.8449707-5.2647095.7005004-1.6699219 1.4291991-3.2982178 2.1887817-4.8896484zm5.7271728-3.6085205c1.4211426 1.9679565 2.7286377 3.9384155 3.9152832 5.9401245-3.2615967-.2720947-6.4671631-1.5985107-8.9634399-3.7145386.2492065-.5031738.5013428-1.0036621.7570801-1.4998779 1.4930877.8556699 3.1913871.485713 4.2910766-.725708zm-10.7549438 15.9334716c.7185059-2.0720215 1.4743652-4.0708618 2.262146-6.0192261 8.4314537 5.6753254 17.0567856 5.3975353 16.956604 5.3805542.0432129 0 .0808105-.0172729.1220703-.024292.3389587.8161354-.1862144 1.5367069-.9316406 1.6854248-5.7070313 1.1308594-11.5322266 1.3134766-17.3144531.5488281-.7879525-.1054305-1.3481274-.8424777-1.0947266-1.571289zm-.4855957 2.4693604c.3959961.3059082.8639526.5197144 1.3830566.5882568 2.3984375.3183594 4.8037109.4775391 7.2050781.4775391 3.5527344 0 7.0976563-.3476563 10.5976563-1.0419922.5084229-.1005249.956543-.3417358 1.3268433-.6692505 6.794735 6.4124603 10.6264343 19.0358315 5.302063 28.0149536-2.6142578 4.3994141-7.2597656 7.3984375-12.1230469 7.8261719-7.0671883.6043625-15.2114983-4.0862579-18.5820313-10.7929688-3.9584961-7.8483505-1.3441505-18.4524612 4.8903809-24.4027099zm-11.959899 13.6704712c.7415352.814106 1.5309925.683754 1.7394409.0584106.1308594-.3935547-.0820313-.8183594-.4746094-.9492188-.2267675-.0755882-.3786945-.4249878-.2841797-.6386719.4122477-.9433212-1.163084-1.6748695-1.4776611-.2702637-1.2644043.2407837-2.7490234-.5078735-3.399292-1.7844238-.671875-1.3183594-.5390625-3.1376953.3388672-4.6357422.7116699-1.2151489 1.8969116-2.2800903 3.4904175-3.1825562.1368484.1333275.2725172.274353.5828247.274353.7452965 0 1.0426493-.9453316.4736328-1.3632813.8310165-.7666626-.5869064-2.0880394-1.3232422-.6998901-1.0543823-.5392456-1.921814-1.6537476-1.7158203-2.7590942.2441406-1.3056641 1.828125-2.0224609 3.1015625-1.8603516 3.1444483.4187756 4.7921515 4.1912613 6.9560537 6.4765625.0029907.0031738.0072632.0041504.0103149.0072632-1.4262028 2.0923004-2.5260201 4.3465767-3.3225708 6.987854-2.3147144 6.8038979-1.1122837 13.7144699 2.7438354 19.1448364-1.0766258.9662361-3.2318459.2760963-3.6815796-1.6106567-.1660156-.6933594-.0693359-1.4003906.2636719-1.9394531.4311428-.6969757-.4135246-1.4787903-1.0761709-1.0029297-1.3095703.9404297-3.4941406.5771484-4.6748047-.7832031-1.7072734-1.9634398-1.9090985-5.6617507 1.7293092-9.4695433z"></path><path d="m35.6537399 54.0618362c2.5703125 0 5.0527344-1.9404297 5.546875-4.4951172.5408325-2.799839-1.6248817-6.2684097-4.5419922-6.7382813-2.8927689-.461544-6.0576363 2.1106796-6.4287109 4.9707031-.3976593 3.0818712 2.1774826 6.2626954 5.4238281 6.2626954zm-3.9355468-6.071289c.1298828-1.0048828.8271484-2.0888672 1.8203125-2.8310547 3.5747643-2.6686134 6.7123032 1.4202385 6.1894531 4.1220703-.390625 2.0214844-2.5947266 3.5605469-4.6308594 3.2363281-2.0322266-.328125-3.6435547-2.4853515-3.3789062-4.5273437z"></path><path d="m45.7699509 52.2503128c-.3046875-.2802734-.7783203-.2578125-1.0595703.0478516-.2792969.3056641-.2578125.7802734.0478516 1.0595703l.9884033.9037476c-1.8700562 2.2348633-4.4886475 3.8366089-7.3521729 4.421875l-.3481445-1.2767944c-.109375-.3984375-.515625-.6347656-.9208984-.5263672-.3994141.1083984-.6347656.5214844-.5263672.9208984l.2977905 1.0921021c-2.8140259.2096558-5.6398315-.5715942-7.9825439-2.0968018l.3634644-.5744019c.2216797-.3505859.1171875-.8134766-.2324219-1.0351563-.3535156-.2236328-.8144531-.1171875-1.0351563.2324219l-.3065186.4848022c-1.0523682-.8723145-1.9716187-1.9058228-2.6895752-3.0824585-.2158203-.3525391-.6777344-.4648438-1.03125-.25-.3535156.2158203-.4658203.6777344-.25 1.03125.8381958 1.3736572 1.9202271 2.5759277 3.1639404 3.5772705l-.6297607.9959717c-.3188076.5027924.0515862 1.1503906.6328125 1.1503906.6431217 0 .7496948-.6561928 1.2130127-1.2634277 2.8582191 1.8537483 6.16045 2.6077042 9.1867065 2.3069458l.3297729 1.2094116c.1077538.3962517.5164833.6350174.9208984.5263672.3994141-.109375.6357422-.5214844.5263672-.9208984l-.2873535-1.053833c3.1341553-.6652832 6.0003052-2.418335 8.0638428-4.8577881.7675514.6376228.9160347 1.003418 1.3885498 1.003418.6778641 0 1.0136681-.8397102.5058594-1.3037109l-.9865112-.9020386c.6306763-.927124 1.1588745-1.9252319 1.5480347-2.9856567.1425781-.3896484-.0566406-.8203125-.4453125-.9628906-.3925781-.1435547-.8203125.0576172-.9628906.4453125-.3217163.8768311-.7471313 1.7078247-1.2546387 2.4838257z"></path><path d="m23.7318649 37.5217972c.1802979.0325317.3587646.0806274.5390015.1150513-.7532997 2.2894363 1.8018761 4.507122 3.9902954 3.0011597.6216431-.4269409 1.0266724-1.0639038 1.1363525-1.7558594.3721313.1087036.7518921.1981812 1.1204834.3144531.3832779.1244392.8142223-.0873528.9404297-.4892578.125-.3945313-.09375-.8164063-.4892578-.9404297-2.2744141-.7177734-4.6191406-1.296875-6.9716797-1.7216797-.4091797-.0683594-.7978516.1972656-.8710938.6054688-.0732421.4072265.1972657.7968749.6054688.8710937z"></path><path d="m39.9193649 39.1507034 1.230835-.4753418c.4079437.9800148 1.3550911 1.541748 2.276001 1.541748 1.6241951 0 2.6630859-1.7622948 2.1283569-3.2426758l.8179321-.315918c.3857422-.1484375.578125-.5830078.4287109-.9697266-.1484375-.3857422-.5830078-.5810547-.9697266-.4287109l-6.453125 2.4921875c-.3857422.1484375-.578125.5830078-.4287109.9697266.1505547.391182.5928574.5778008.9697266.428711z"></path></g></svg>